<svg
        xmlns="http://www.w3.org/2000/svg"
        xmlns:xlink="http://www.w3.org/1999/xlink"
        width="17px" height="18px">
    <path fill-rule="evenodd"  fill="rgb(255, 255, 255)"
          d="M16.086,7.715 C16.084,7.716 16.083,7.717 16.081,7.718 L15.687,7.943 C15.518,8.042 15.422,8.232 15.441,8.429 C15.441,8.613 15.464,8.802 15.464,8.991 C15.464,9.180 15.464,9.365 15.441,9.554 C15.423,9.750 15.519,9.939 15.687,10.040 L16.081,10.264 C16.927,10.719 17.247,11.776 16.795,12.627 C16.794,12.628 16.793,12.630 16.793,12.632 L15.799,14.346 C15.565,14.749 15.171,15.032 14.716,15.124 C14.266,15.219 13.798,15.142 13.401,14.908 L12.980,14.688 C12.810,14.591 12.599,14.601 12.439,14.715 C12.162,14.907 11.872,15.078 11.571,15.228 C11.399,15.311 11.288,15.486 11.285,15.678 L11.285,16.200 C11.312,17.165 10.558,17.970 9.598,18.000 L7.611,18.000 C6.651,17.970 5.895,17.166 5.920,16.200 L5.920,15.786 C5.915,15.589 5.796,15.413 5.616,15.336 C5.237,15.164 4.875,14.958 4.533,14.720 C4.374,14.607 4.165,14.596 3.996,14.692 L3.598,14.922 C3.321,15.081 3.008,15.166 2.690,15.169 C2.090,15.181 1.530,14.868 1.222,14.351 L0.220,12.623 C-0.018,12.214 -0.067,11.721 0.086,11.273 C0.228,10.834 0.528,10.465 0.927,10.238 L1.321,10.008 C1.490,9.908 1.586,9.719 1.567,9.522 C1.567,9.338 1.544,9.148 1.544,8.960 C1.544,8.771 1.544,8.586 1.567,8.397 C1.585,8.201 1.489,8.011 1.321,7.911 L0.927,7.686 C0.081,7.232 -0.239,6.174 0.213,5.323 C0.214,5.322 0.214,5.320 0.215,5.319 L1.213,3.627 C1.447,3.221 1.843,2.936 2.300,2.844 C2.750,2.750 3.219,2.827 3.616,3.060 L4.009,3.290 C4.179,3.386 4.388,3.375 4.546,3.263 C4.888,3.024 5.250,2.818 5.629,2.646 C5.809,2.569 5.928,2.393 5.933,2.196 L5.933,1.800 C5.906,0.838 6.655,0.034 7.611,0.000 L9.598,0.000 C10.558,0.029 11.314,0.834 11.289,1.800 L11.289,2.295 C11.292,2.487 11.403,2.662 11.575,2.745 C11.877,2.894 12.167,3.066 12.443,3.258 C12.603,3.370 12.811,3.380 12.980,3.285 L13.374,3.055 C13.771,2.822 14.240,2.745 14.690,2.840 C15.155,2.928 15.560,3.215 15.799,3.627 L16.793,5.351 C17.247,6.200 16.930,7.259 16.086,7.715 ZM15.660,6.012 L14.667,4.275 C14.615,4.192 14.531,4.135 14.435,4.117 C14.301,4.089 14.162,4.114 14.045,4.185 L12.891,4.851 C12.705,4.959 12.471,4.936 12.309,4.793 C11.737,4.287 11.075,3.894 10.358,3.636 C10.147,3.570 10.003,3.373 10.005,3.150 L10.005,1.800 C10.031,1.556 9.858,1.336 9.616,1.305 L7.611,1.305 C7.376,1.344 7.213,1.562 7.240,1.800 L7.240,3.074 C7.241,3.293 7.099,3.488 6.891,3.555 C6.088,3.811 5.346,4.231 4.712,4.788 C4.551,4.929 4.320,4.952 4.135,4.847 L2.967,4.181 C2.850,4.111 2.711,4.087 2.578,4.113 C2.482,4.131 2.397,4.187 2.345,4.271 L1.347,5.994 C1.254,6.220 1.357,6.480 1.580,6.579 C1.580,6.579 2.314,7.029 2.734,7.245 C3.043,7.420 2.954,7.880 2.954,7.880 C2.882,8.249 2.848,8.624 2.851,9.000 C2.854,9.369 2.890,9.736 2.958,10.098 C3.012,10.508 2.922,10.629 2.801,10.697 L1.584,11.385 C1.470,11.457 1.385,11.569 1.347,11.700 C1.309,11.789 1.309,11.890 1.347,11.979 L2.341,13.703 C2.489,13.899 2.766,13.939 2.963,13.793 L4.117,13.127 C4.302,13.014 4.539,13.034 4.703,13.176 L4.694,13.176 C5.332,13.731 6.077,14.148 6.882,14.400 C7.090,14.467 7.232,14.662 7.231,14.881 L7.231,16.200 C7.204,16.441 7.373,16.660 7.611,16.695 L9.598,16.695 C9.840,16.664 10.013,16.444 9.987,16.200 L9.987,14.819 C9.988,14.607 10.120,14.418 10.318,14.346 C11.039,14.086 11.706,13.692 12.282,13.185 C12.443,13.044 12.674,13.021 12.860,13.127 L14.018,13.797 C14.136,13.866 14.274,13.890 14.408,13.864 C14.504,13.847 14.588,13.790 14.640,13.707 L15.665,11.975 C15.759,11.749 15.655,11.488 15.432,11.389 L14.300,10.733 C14.092,10.589 13.996,10.330 14.059,10.084 C14.128,9.727 14.162,9.364 14.162,9.000 C14.159,8.631 14.123,8.264 14.054,7.902 C13.978,7.452 14.054,7.389 14.184,7.317 L15.428,6.597 C15.651,6.498 15.754,6.238 15.660,6.012 ZM8.506,12.947 C6.332,12.934 4.579,11.151 4.591,8.964 C4.604,6.777 6.376,5.014 8.551,5.026 C10.722,5.039 12.473,6.817 12.466,9.000 C12.449,11.186 10.680,12.949 8.506,12.947 ZM8.515,6.327 C8.512,6.327 8.509,6.327 8.506,6.327 C7.046,6.334 5.868,7.531 5.875,9.000 C5.883,10.469 7.073,11.653 8.533,11.646 C9.983,11.639 11.156,10.458 11.164,9.000 C11.166,7.526 9.981,6.330 8.515,6.327 Z"/>
</svg>